<svg width="48" height="48" viewBox="0 0 48 48" fill="none" xmlns="http://www.w3.org/2000/svg">
<path fill-rule="evenodd" clip-rule="evenodd" d="M24 0C10.7452 0 0 10.7452 0 24C0 37.2548 10.7452 48 24 48C37.2548 48 48 37.2548 48 24C48 10.7452 37.2548 0 24 0ZM24 45.6C12.0707 45.6 2.4 35.9293 2.4 24C2.4 12.0707 12.0707 2.4 24 2.4C35.9293 2.4 45.6 12.0707 45.6 24C45.6 35.9293 35.9293 45.6 24 45.6Z" fill="white"/>
<path fill-rule="evenodd" clip-rule="evenodd" d="M29.7477 15.0798C29.7477 13.8682 30.5865 13.1536 31.6739 13.1536C32.8234 13.1536 33.6 13.9303 33.6 15.0798C33.6 16.3225 32.7923 17.0059 31.6428 17.0059C30.5244 17.0059 29.7477 16.3225 29.7477 15.0798ZM14.5347 34.2492L16.0259 28.6039H16.0261H22.0531L23.6065 34.2801C23.6373 34.4044 23.7307 34.4407 23.8859 34.4407H26.9926C27.1479 34.4407 27.179 34.3473 27.1479 34.1922L21.1522 13.8687C21.1209 13.7134 21.0588 13.6823 20.9345 13.6823H16.9892C16.8958 13.6823 16.8337 13.7445 16.8337 13.8687C16.8026 14.8007 16.7405 15.0948 16.6473 15.4366L11.3038 34.1611C11.2729 34.3786 11.3038 34.4407 11.4898 34.4407H14.2553C14.4415 34.4407 14.5038 34.4044 14.5347 34.2492ZM20.682 23.2598L20.6821 23.2601C20.9155 24.1491 21.1252 24.9483 21.2764 25.5442H16.8339L16.8844 25.3542C17.653 22.464 18.6132 18.8531 19.0085 16.6949H19.0396C19.3721 18.2691 20.1003 21.0435 20.682 23.2598L20.682 23.2598ZM30.1761 19.1426C30.0207 19.1426 29.9586 19.2047 29.9586 19.36V34.1922C29.9586 34.3473 30.0207 34.4407 30.2071 34.4407H33.1303C33.3167 34.4407 33.3477 34.3786 33.3477 34.2232V19.36C33.3477 19.2047 33.2856 19.1426 33.1303 19.1426H30.1761Z" fill="white"/>
</svg>
