<svg width="40" height="32" viewBox="0 0 40 32" fill="none" xmlns="http://www.w3.org/2000/svg">
<path d="M34.2857 0H5.71429C2.55714 0 0 2.60364 0 5.81818V26.1818C0 29.3964 2.55714 32 5.71429 32H34.2857C37.4429 32 40 29.3964 40 26.1818V5.81818C40 2.60364 37.4429 0 34.2857 0ZM13.8714 20.7855C15.2143 22.1527 13.1714 24.1891 11.8571 22.8364L6.14286 17.0182C5.58571 16.4509 5.58571 15.5345 6.14286 14.9673L11.8571 9.14909C13.2 7.78182 15.2143 9.84727 13.8714 11.2L9.17143 15.9855L13.8714 20.7709V20.7855ZM22.8143 10.5309L19.9571 22.1673C19.5 24.0582 16.7286 23.3309 17.1857 21.4691L20.0429 9.83273C20.5 7.97091 23.2714 8.66909 22.8143 10.5309ZM33.8714 17.0182L28.1571 22.8364C26.8143 24.2036 24.8 22.1382 26.1429 20.7855L30.8429 16L26.1429 11.2145C24.8 9.84727 26.8286 7.79636 28.1571 9.16364L33.8714 14.9818C34.4286 15.5491 34.4286 16.4655 33.8714 17.0327V17.0182Z" fill="white"/>
</svg>
