<svg width="32" height="32" viewBox="0 0 32 32" fill="none" xmlns="http://www.w3.org/2000/svg">
<path d="M31.4198 24.9375L19.5952 2.3125C18.8216 0.875001 17.4954 0 16.0035 0C14.5117 0 13.1855 0.875001 12.4119 2.3125L0.587281 24.9375C-0.186295 26.375 -0.186295 28.1875 0.532025 29.625C1.3056 31.125 2.63173 32 4.12363 32H27.8282C29.3201 32 30.7015 31.125 31.4198 29.625C32.1934 28.1875 32.1934 26.375 31.4198 24.9375ZM17.6612 25.25C17.6612 26.3125 16.9429 27.125 16.0035 27.125C15.0642 27.125 14.3459 26.3125 14.3459 25.25V24.625C14.3459 23.5625 15.0642 22.75 16.0035 22.75C16.9429 22.75 17.6612 23.5625 17.6612 24.625V25.25ZM17.6612 19.9375C17.6612 21 16.9429 21.8125 16.0035 21.8125C15.0642 21.8125 14.3459 21 14.3459 19.9375V9.9375C14.3459 8.875 15.0642 8.0625 16.0035 8.0625C16.9429 8.0625 17.6612 8.875 17.6612 9.9375V19.9375Z" fill="white"/>
</svg>
