<svg width="33" height="29" viewBox="0 0 33 29" fill="none" xmlns="http://www.w3.org/2000/svg">
<path fill-rule="evenodd" clip-rule="evenodd" d="M16.4998 4.40272C14.8873 2.19055 12.2873 0.753361 9.35669 0.753361C4.46873 0.753361 0.5 4.75281 0.5 9.67787C0.5 13.3411 2.9765 17.1988 6.04278 20.4594C10.4197 25.1128 15.8921 28.5772 15.8921 28.5772C16.2635 28.8121 16.7365 28.8121 17.1079 28.5772C17.1079 28.5772 22.58 25.1131 26.9572 20.4594C30.0235 17.1992 32.5 13.3413 32.5 9.67787C32.5 4.75248 28.5309 0.753362 23.6433 0.753362C20.713 0.753362 18.113 2.19055 16.5002 4.40273L16.4998 4.40272Z" fill="#FF0000"/>
</svg>
