<svg width="19" height="17" viewBox="0 0 19 17" fill="none" xmlns="http://www.w3.org/2000/svg">
<path fill-rule="evenodd" clip-rule="evenodd" d="M9.49987 2.83871C8.59287 1.57461 7.13037 0.753361 5.48189 0.753361C2.73241 0.753361 0.5 3.03876 0.5 5.85308C0.5 7.94637 1.89303 10.1507 3.61781 12.014C6.07985 14.6731 9.15806 16.6527 9.15806 16.6527C9.36699 16.7869 9.63303 16.7869 9.84194 16.6527C9.84194 16.6527 12.92 14.6732 15.3822 12.014C17.107 10.151 18.5 7.94644 18.5 5.85308C18.5 3.03857 16.2674 0.753361 13.5181 0.753361C11.8698 0.753361 10.4073 1.57461 9.50013 2.83871L9.49987 2.83871Z" fill="#FF0000"/>
</svg>
