<svg width="22" height="32" viewBox="0 0 22 32" fill="none" xmlns="http://www.w3.org/2000/svg">
<path d="M10.9238 29.9138C11.606 29.9138 12.1679 30.3849 12.1679 30.9569C12.1679 31.5289 11.606 32 10.9238 32C10.2415 32 9.67969 31.5289 9.67969 30.9569C9.71982 30.3849 10.2415 29.9138 10.9238 29.9138Z" fill="white"/>
<path d="M18.7092 2.72555C16.6223 0.942166 13.8532 0 10.8834 0C7.95379 0 5.18468 0.975815 3.13794 2.72555C1.37214 4.2061 0.288571 6.09043 0.00764667 8.10936C-0.0726174 8.71504 0.489231 9.25342 1.21161 9.25342C1.81359 9.25342 2.3353 8.88328 2.41557 8.3449C2.93728 4.81178 6.54917 2.05258 10.9236 2.05258C15.6591 2.05258 19.5118 5.28286 19.5118 9.25342C19.5118 10.9359 18.7493 12.4837 17.4249 13.6614L12.5288 17.7666C10.7229 19.3481 9.7196 21.4006 9.7196 23.6215V25.674C9.7196 26.2461 10.2814 26.7171 10.9637 26.7171C11.6459 26.7171 12.2078 26.2461 12.2078 25.674V23.6215C12.2078 21.939 12.9703 20.3912 14.2946 19.2135L19.1908 15.1083C20.9967 13.5268 22 11.4742 22 9.25342C21.9599 6.76341 20.796 4.44164 18.7092 2.72555Z" fill="white"/>
</svg>
