<svg width="32" height="32" viewBox="0 0 32 32" fill="none" xmlns="http://www.w3.org/2000/svg">
<path d="M17.9482 1.26455L21.2101 8.16581C21.366 8.49564 21.5964 8.78095 21.8814 8.99715C22.1663 9.21335 22.4974 9.35395 22.846 9.40685L30.1398 10.5135C30.541 10.5744 30.9179 10.7512 31.2278 11.0241C31.5377 11.2969 31.7684 11.6549 31.8937 12.0575C32.0189 12.46 32.0338 12.8912 31.9367 13.3021C31.8395 13.7131 31.6342 14.0875 31.3439 14.3829L26.066 19.7548C25.8138 20.0115 25.6251 20.3285 25.5163 20.6783C25.4074 21.0281 25.3816 21.4003 25.4412 21.7628L26.6871 29.348C26.7557 29.7652 26.711 30.1941 26.5583 30.5862C26.4055 30.9783 26.1508 31.3179 25.8228 31.5667C25.4948 31.8156 25.1068 31.9636 24.7024 31.9941C24.2981 32.0246 23.8936 31.9364 23.5348 31.7394L17.011 28.1582C16.6992 27.9871 16.3522 27.8976 16 27.8976C15.6478 27.8976 15.3008 27.9871 14.989 28.1582L8.4652 31.7394C8.10637 31.9364 7.70193 32.0246 7.29759 31.9941C6.89326 31.9636 6.50516 31.8155 6.1772 31.5667C5.84923 31.3179 5.59447 30.9783 5.44173 30.5862C5.28899 30.1941 5.24436 29.7652 5.31288 29.348L6.55881 21.7627C6.61836 21.4002 6.5926 21.028 6.48375 20.6782C6.3749 20.3284 6.18623 20.0115 5.93399 19.7548L0.656102 14.3829C0.365805 14.0875 0.160469 13.7131 0.0633143 13.3021C-0.0338407 12.8912 -0.0189392 12.46 0.106334 12.0574C0.231607 11.6549 0.462255 11.2969 0.772194 11.0241C1.08213 10.7512 1.459 10.5744 1.86018 10.5135L9.15403 9.40682C9.50263 9.35393 9.83367 9.21332 10.1186 8.99712C10.4036 8.78093 10.634 8.49562 10.7899 8.16578L14.0518 1.26455C14.2312 0.884972 14.5087 0.565375 14.853 0.341904C15.1973 0.118432 15.5946 0 16 0C16.4054 0 16.8027 0.118432 17.147 0.341904C17.4913 0.565375 17.7688 0.884972 17.9482 1.26455Z" fill="white"/>
</svg>
