<svg width="48" height="48" viewBox="0 0 48 48" fill="none" xmlns="http://www.w3.org/2000/svg">
<path fill-rule="evenodd" clip-rule="evenodd" d="M24 0C10.7452 0 0 10.7452 0 24C0 37.2548 10.7452 48 24 48C37.2548 48 48 37.2548 48 24C48 10.7452 37.2548 0 24 0ZM24 45.6C12.0707 45.6 2.4 35.9293 2.4 24C2.4 12.0707 12.0707 2.4 24 2.4C35.9293 2.4 45.6 12.0707 45.6 24C45.6 35.9293 35.9293 45.6 24 45.6Z" fill="black"/>
<path fill-rule="evenodd" clip-rule="evenodd" d="M24.7064 32.5061L20.1564 23.6824L24.4464 15.4438C24.5276 15.2975 24.4789 15.2 24.3489 15.2H21.7326C21.5721 15.2 21.5226 15.2793 21.4431 15.4065L21.4401 15.4113C21.1711 15.989 20.8985 16.5692 20.6252 17.1508C19.8915 18.712 19.1531 20.2834 18.4664 21.8462H18.4339C17.7169 20.245 16.9648 18.6701 16.2099 17.0893C15.9382 16.5204 15.6661 15.9507 15.3952 15.3788C15.3464 15.2325 15.2652 15.2 15.1027 15.2H12.3077C12.194 15.2 12.0965 15.3138 12.194 15.4438L16.5002 23.9587L12.0477 32.5224C11.9665 32.6199 11.9827 32.7499 12.1452 32.7499H14.8427C14.9727 32.7499 15.0539 32.7011 15.1352 32.5711C16.1752 30.4261 17.2477 28.0536 18.2227 25.8762H18.2552C19.3439 28.1836 20.4001 30.4099 21.4401 32.5549C21.5214 32.7174 21.6026 32.7661 21.7814 32.7661H24.6089C24.7389 32.7661 24.7876 32.6361 24.7064 32.5061ZM25.6976 26.3149C25.6976 22.5287 28.1351 19.5712 32.1325 19.5712C32.4738 19.5712 32.6525 19.5712 32.9775 19.6037V15.3788C32.9775 15.2813 33.0588 15.2163 33.14 15.2163H35.7563C35.8863 15.2163 35.9188 15.265 35.9188 15.3463V30.1986C35.9188 30.6374 35.9188 31.1899 36 31.7911C36 31.9049 36 31.9211 35.9025 31.9699C34.5375 32.6199 33.1075 32.9124 31.7425 32.9124C28.2163 32.9124 25.6976 30.7349 25.6976 26.3149ZM32.9775 22.155C32.7338 22.0412 32.425 21.9925 32.035 21.9925C29.9876 21.9925 28.6226 23.5687 28.6226 26.1849C28.6226 29.1749 30.0201 30.3774 31.84 30.3774C32.23 30.3774 32.6525 30.3286 32.9613 30.1986V22.155H32.9775Z" fill="black"/>
</svg>
