<svg width="48" height="48" viewBox="0 0 48 48" fill="none" xmlns="http://www.w3.org/2000/svg">
<path fill-rule="evenodd" clip-rule="evenodd" d="M24 0C10.7452 0 0 10.7452 0 24C0 37.2548 10.7452 48 24 48C37.2548 48 48 37.2548 48 24C48 10.7452 37.2548 0 24 0ZM17.6437 11.2H31.3393C33.3436 11.2 33.8886 12.3555 33.4666 14.5244C32.904 17.3332 31.0932 26.2219 30.935 26.8442C30.7416 27.5908 30.4076 28.8175 28.6494 28.8175H24.5355C24.4652 28.8175 24.4124 28.8175 24.307 28.9419C24.2015 29.0664 17.6965 36.7284 17.6965 36.7284C17.1339 37.2973 16.3428 37.2084 16.0439 37.084C15.745 36.9596 15.2 36.6396 15.2 35.5552V13.5466C15.2 12.64 15.7626 11.2 17.6437 11.2Z" fill="black"/>
<path d="M30.5306 14.9511L29.9153 17.9555C29.845 18.2755 29.5461 18.5599 29.1769 18.5599H23.8323C23.2345 18.5599 22.7422 19.0577 22.7422 19.6621V20.3199C22.7422 20.9243 23.2345 21.4221 23.8323 21.4221H28.3506C28.7725 21.4221 29.1241 21.831 29.0362 22.2754C28.9483 22.7376 28.4737 25.0843 28.4209 25.3331C28.3857 25.5998 28.1044 25.9376 27.6825 25.9376H23.9905C23.2169 25.9553 23.0587 25.9731 22.6016 26.542C22.1445 27.1109 18.1009 32.2308 18.1009 32.2308C18.0657 32.2841 18.0305 32.2664 18.0305 32.213V14.8088C18.0305 14.4 18.3646 14.0622 18.7689 14.0622H29.8626C30.2493 14.0622 30.6361 14.4533 30.5306 14.9511Z" fill="black"/>
</svg>
