<svg width="48" height="48" viewBox="0 0 48 48" fill="none" xmlns="http://www.w3.org/2000/svg">
<path fill-rule="evenodd" clip-rule="evenodd" d="M24 0C10.7452 0 0 10.7452 0 24C0 37.2548 10.7452 48 24 48C37.2548 48 48 37.2548 48 24C48 10.7452 37.2548 0 24 0ZM14.4352 20.5109C14.4836 20.5509 14.5366 20.5969 14.5919 20.6464C14.4636 20.0131 14.3962 19.358 14.3962 18.6872C14.3962 13.2256 18.857 8.8 24.3578 8.8C29.8618 8.8 34.3218 13.2256 34.3218 18.6872C34.3218 19.6586 34.1806 20.5974 33.9174 21.4844C33.9717 21.4353 34.0256 21.3857 34.0792 21.3357C34.1 21.3165 34.6544 22.0349 34.9032 22.7653C35.1696 23.5477 35.4392 24.3989 35.1936 24.5933L35.1398 24.6357C35.561 25.2645 35.9517 25.9877 36.2723 26.7701C37.4475 29.6365 36.9891 32.6293 36.3475 32.7701C35.8051 32.8896 34.7674 32.0034 33.7526 30.6158C33.5129 32.2529 32.6803 33.7376 31.439 34.9161C33.3976 35.5147 34.7178 36.697 34.5683 37.8735C34.3835 39.3343 31.9995 40.2335 29.2459 39.8839C27.1464 39.6161 25.4368 38.6981 24.8267 37.629C24.6231 37.6398 24.4178 37.6452 24.211 37.6452C24.0914 37.6452 23.9723 37.6434 23.8538 37.6398C23.2422 38.7008 21.4909 39.5934 19.3234 39.8285C16.4826 40.1349 14.0066 39.1973 13.7898 37.7325C13.6152 36.5657 14.9294 35.4166 16.9068 34.8421C15.6555 33.6241 14.8352 32.0895 14.6431 30.4023C13.5003 31.787 12.3367 32.5327 11.8902 32.2954C11.0206 31.8314 10.8102 28.9858 12.2222 26.1698C12.6187 25.3802 13.0832 24.6702 13.5705 24.0692L13.5568 24.0573C13.4816 23.9917 13.5048 23.7821 13.5048 23.7821C13.5048 23.7821 13.6232 23.3229 13.82 22.2229C13.9576 21.4541 14.2696 20.5109 14.4352 20.5109Z" fill="black"/>
<path d="M17.1601 24.6051C16.5665 25.8227 16.2265 27.2067 16.2265 28.6771C16.2265 33.5315 19.8833 37.4667 24.3945 37.4667C28.9057 37.4667 32.5617 33.5315 32.5617 28.6771C32.5617 27.2467 32.2377 25.9003 31.6745 24.7067C27.5177 26.8259 19.9065 25.2731 17.1601 24.6051Z" fill="black"/>
<path fill-rule="evenodd" clip-rule="evenodd" d="M21.7222 18.7947C22.7998 18.7947 23.6726 17.7259 23.6726 16.4075C23.6726 15.0891 22.7998 14.0203 21.7222 14.0203C20.6454 14.0203 19.7726 15.0891 19.7726 16.4075C19.7726 17.7259 20.6454 18.7947 21.7222 18.7947ZM22.1518 14.9096C22.8246 14.9096 23.371 15.5864 23.371 16.4208C23.371 17.2552 22.8246 17.932 22.1518 17.932C21.4782 17.932 20.9318 17.2552 20.9318 16.4208C20.9318 15.5864 21.4782 14.9096 22.1518 14.9096Z" fill="black"/>
<path fill-rule="evenodd" clip-rule="evenodd" d="M27.3219 18.808C28.3995 18.808 29.2723 17.7392 29.2723 16.4208C29.2723 15.1024 28.3995 14.0336 27.3219 14.0336C26.2459 14.0336 25.3723 15.1024 25.3723 16.4208C25.3723 17.7392 26.2459 18.808 27.3219 18.808ZM26.4103 16.8094C26.3959 16.8118 26.3823 16.8134 26.3679 16.8134C26.2535 16.8134 26.1527 16.731 26.1319 16.615C26.1191 16.5422 26.1127 16.4662 26.1127 16.3886C26.1127 15.7502 26.5655 15.231 27.1215 15.231C27.6775 15.231 28.1303 15.7502 28.1303 16.3886C28.1303 16.4446 28.1271 16.499 28.1207 16.5526C28.1039 16.6838 27.9823 16.7766 27.8519 16.7606C27.7207 16.7438 27.6279 16.6238 27.6439 16.4926C27.6487 16.459 27.6511 16.4238 27.6511 16.3886C27.6511 16.015 27.4135 15.711 27.1215 15.711C26.8295 15.711 26.5919 16.015 26.5919 16.3886C26.5919 16.4374 26.5967 16.4854 26.6047 16.531C26.6279 16.6622 26.5407 16.7862 26.4103 16.8094Z" fill="black"/>
<path fill-rule="evenodd" clip-rule="evenodd" d="M31.0876 21.0322C29.7692 20.0914 27.4052 19.461 24.6988 19.461C21.9836 19.461 19.6124 20.0954 18.2964 21.0418C18.626 21.8186 19.622 22.4234 20.5988 22.985C21.7788 23.6634 23.7172 24.1226 24.6924 24.1226C25.5924 24.1226 27.8204 23.5162 29.0236 22.7298C29.151 22.6468 29.2794 22.5651 29.4068 22.4842C30.1259 22.0273 30.8117 21.5915 31.0876 21.0322ZM22.2373 22.7698C20.9061 21.9994 19.5693 20.9578 19.2573 20.6474C19.2573 20.6474 20.7565 21.9314 22.1357 22.3146C23.7485 22.7626 26.0789 22.5514 26.9621 22.2554C28.5677 21.7162 30.2741 20.5546 30.2741 20.5546C30.2741 20.5546 28.7661 21.7082 27.2109 22.725C27.143 22.7693 27.0745 22.8153 27.0049 22.8621C26.2734 23.3533 25.4168 23.9286 23.7717 23.5722C23.405 23.4932 22.8056 23.1207 22.449 22.8991C22.3615 22.8447 22.2886 22.7994 22.2373 22.7698Z" fill="black"/>
<path d="M22.916 16.077C22.916 16.4138 22.6872 16.6874 22.4048 16.6874C22.1224 16.6874 21.8936 16.4138 21.8936 16.077C21.8936 15.741 22.1224 15.4682 22.4048 15.4682C22.6872 15.4682 22.916 15.741 22.916 16.077Z" fill="black"/>
</svg>
