<svg width="48" height="48" viewBox="0 0 48 48" fill="none" xmlns="http://www.w3.org/2000/svg">
<path fill-rule="evenodd" clip-rule="evenodd" d="M0 24C0 37.2548 10.7452 48 24 48C37.2548 48 48 37.2548 48 24C48 10.7452 37.2548 0 24 0C10.7452 0 0 10.7452 0 24ZM32.9432 15.0905C33.0442 15.1074 33.1789 15.1747 33.1958 15.3263C33.2059 15.4172 34.3229 22.972 35.2165 29.0158C35.814 33.0571 36.3116 36.4227 36.3116 36.4295L27.4863 38.3326L11.2 35.2842C11.2 35.2842 13.2884 19.1158 13.3726 18.5263C13.4737 17.7684 13.5074 17.7516 14.2989 17.4989C14.372 17.4807 14.7021 17.3784 15.2171 17.2188C15.6525 17.0838 16.22 16.908 16.8758 16.7074C17.4316 14.3663 19.1832 9.76842 22.8716 9.75158C23.3432 9.75158 23.8989 10.0211 24.3537 10.6105H24.4884C26.0716 10.6105 26.9811 11.9579 27.4695 13.4232C27.9916 13.2547 28.3116 13.1537 28.3284 13.1537C28.4632 13.12 28.7832 13.0695 28.9516 13.2379C29.1032 13.4063 30.6358 14.9221 30.6358 14.9221C30.6358 14.9221 32.8421 15.0737 32.9432 15.0905Z" fill="black"/>
<path d="M26.5768 13.7095C26.1726 13.8442 25.7011 13.979 25.1958 14.1305V13.8274C25.1958 12.9179 25.0611 12.1768 24.8589 11.6042C25.6842 11.7221 26.24 12.6484 26.5768 13.7095Z" fill="black"/>
<path d="M23.8653 11.7895C24.0842 12.3621 24.2358 13.1705 24.2358 14.2653V14.4168C23.3432 14.6863 22.3663 14.9895 21.3895 15.2926C21.9453 13.2042 22.9726 12.1768 23.8653 11.7895Z" fill="black"/>
<path d="M22.7705 10.7621C22.9221 10.7621 23.0905 10.8126 23.2421 10.9137C22.0632 11.4695 20.8 12.8674 20.2611 15.6632C19.4863 15.8989 18.7116 16.1347 18.0042 16.3537C18.6442 14.2316 20.1263 10.7621 22.7705 10.7621Z" fill="black"/>
<path d="M24.4884 19.9747L23.3937 23.2084C23.3937 23.2084 22.4337 22.7032 21.2716 22.7032C19.5537 22.7032 19.4695 23.781 19.4695 24.0505C19.4695 25.5326 23.3263 26.0884 23.3263 29.5579C23.3263 32.2863 21.5916 34.0379 19.2674 34.0379C16.4716 34.0379 15.04 32.3032 15.04 32.3032L15.7811 29.8274C15.7811 29.8274 17.2463 31.0905 18.4926 31.0905C19.3011 31.0905 19.6379 30.4505 19.6379 29.9789C19.6379 28.0421 16.4716 27.9579 16.4716 24.7916C16.4716 22.1305 18.3916 19.5368 22.2484 19.5368C23.7642 19.5537 24.4884 19.9747 24.4884 19.9747Z" fill="black"/>
</svg>
