<svg width="48" height="48" viewBox="0 0 48 48" fill="none" xmlns="http://www.w3.org/2000/svg">
<path d="M0 24C0 10.7452 10.7452 0 24 0C37.2548 0 48 10.7452 48 24C48 37.2548 37.2548 48 24 48C10.7452 48 0 37.2548 0 24Z" fill="#FFD900"/>
<path d="M26.4616 8.79999C24.2496 8.79999 22.4 10.5845 22.4 12.7866C22.4 14.9882 24.2496 16.773 26.4616 16.773C28.672 16.773 30.5505 14.9882 30.5505 12.7866C30.5505 10.5845 28.672 8.79999 26.4616 8.79999Z" fill="white"/>
<path d="M33.9279 22.9576C33.9279 22.9576 33.0014 21.2406 31.8297 19.4636C29.9189 21.1734 27.9393 20.8871 27.098 20.705C25.9889 20.4655 25.6878 19.9965 25.7796 19.5841C25.1331 19.3814 22.8607 18.0444 21.4868 17.6C18.844 19.1995 17.7856 23.197 17.9125 27.2625C16.1398 30.6123 14.8204 31.7412 11.2 32.5693C11.881 34.1589 12.1563 34.7543 13.1649 36.8612C17.6922 35.6419 20.5865 33.0019 22.3648 30.7409C25.3938 31.5073 27.6092 33.422 29.4382 36.896C31.3372 35.3208 31.5476 35.1595 33.1635 33.8674C31.9032 30.8673 28.8104 28.2725 25.8648 26.8595C25.8925 26.1497 25.914 25.9725 25.9432 25.4157C30.2714 26.5406 33.9279 22.9576 33.9279 22.9576Z" fill="white"/>
</svg>
