<svg width="48" height="48" viewBox="0 0 48 48" fill="none" xmlns="http://www.w3.org/2000/svg">
<path d="M24 48C37.2548 48 48 37.2548 48 24C48 10.7452 37.2548 0 24 0C10.7452 0 0 10.7452 0 24C0 37.2548 10.7452 48 24 48Z" fill="white"/>
<path d="M38.4 36.2656C38.4 37.4395 37.4398 38.4 36.2663 38.4H23.9976C15.0716 38.4 8.04825 30.2715 9.89744 21.0225C11.0354 15.3308 15.5695 10.9019 21.2771 9.85253C30.1675 8.21616 37.9555 14.7438 38.3822 23.2814H38.4V36.2656Z" fill="#F4B70A"/>
<path d="M30.6622 31.1312C30.6622 31.1312 31.1999 31.4513 31.1999 30.7105V23.8756C31.1359 19.9579 27.9369 16.8 23.9999 16.8C20.0235 16.8 16.7999 20.0215 16.7999 23.9955C16.7999 27.9694 20.0235 31.191 23.9999 31.191C25.8254 31.191 27.4922 30.512 28.7613 29.393L30.6622 31.1312Z" fill="white"/>
</svg>
