<svg width="48" height="48" viewBox="0 0 48 48" fill="none" xmlns="http://www.w3.org/2000/svg">
<path d="M0 24C0 10.7452 10.7452 0 24 0C37.2548 0 48 10.7452 48 24C48 37.2548 37.2548 48 24 48C10.7452 48 0 37.2548 0 24Z" fill="white"/>
<path d="M24.3391 12.8C16.8351 12.8 10.9562 22.3585 10.4 30.4317C12.7548 34.5235 18.4332 36.0615 24.3391 36.0615C30.2445 36.0615 35.9233 34.5235 38.2769 30.4317C37.7207 22.3585 31.8426 12.8 24.3391 12.8Z" fill="#B6DEFF"/>
<path d="M36.4505 28.569C36.4505 28.569 34.7881 24.9846 33.0983 22.8933C31.4073 20.8012 29.3423 18.5231 28.1213 18.5231C26.9011 18.5231 23.4899 24.5467 21.9249 24.5467C20.3597 24.5467 19.5462 21.8161 17.6217 21.8161C15.6966 21.8161 12.638 28.4007 12.638 28.4007L12.4308 29.517C12.4308 29.517 13.4934 34.2154 24.6099 34.2154C35.7269 34.2154 36.6154 29.5941 36.6154 29.5941L36.4505 28.569Z" fill="#66CC66"/>
<path d="M22.0595 27.0154C20.3306 27.0154 19.4443 25.3366 18.9637 24.3003C18.5316 23.3669 18.4569 21.893 17.2307 21.8518C17.3512 21.8048 17.4672 21.7771 17.5759 21.7771C19.503 21.7771 20.3177 24.4752 21.8852 24.4752C23.4523 24.4752 26.8684 18.5231 28.0903 18.5231C28.3207 18.5231 28.58 18.603 28.8615 18.7453C28.6532 18.7182 28.3863 18.737 28.1807 18.94C27.7856 19.3289 24.1998 27.0154 22.0595 27.0154Z" fill="#17AD49"/>
</svg>
