<svg width="48" height="48" viewBox="0 0 48 48" fill="none" xmlns="http://www.w3.org/2000/svg">
<path d="M0 24C0 10.7452 10.7452 0 24 0C37.2548 0 48 10.7452 48 24C48 37.2548 37.2548 48 24 48C10.7452 48 0 37.2548 0 24Z" fill="#00853F"/>
<mask id="mask0_1_1115" style="mask-type:luminance" maskUnits="userSpaceOnUse" x="0" y="0" width="48" height="48">
<path fill-rule="evenodd" clip-rule="evenodd" d="M0 24C0 10.7452 10.7452 0 24 0C37.2548 0 48 10.7452 48 24C48 37.2548 37.2548 48 24 48C10.7452 48 0 37.2548 0 24Z" fill="white"/>
</mask>
<g mask="url(#mask0_1_1115)">
<path d="M11.2559 18.1833C7.68492 21.7643 5.72262 26.5405 5.73258 31.6405C5.74752 42.2787 14.7273 51.2734 25.3356 51.2734V47.9614C16.6697 47.9614 9.05454 40.3314 9.0396 31.6305C9.03462 27.4171 10.6483 23.4726 13.5967 20.5191C16.5601 17.5508 20.5345 15.9122 24.7878 15.9122V12.6052C19.648 12.6052 14.8468 14.5874 11.2559 18.1833Z" fill="#99CEB2"/>
</g>
<mask id="mask1_1_1115" style="mask-type:luminance" maskUnits="userSpaceOnUse" x="0" y="0" width="48" height="48">
<path fill-rule="evenodd" clip-rule="evenodd" d="M0 24C0 10.7452 10.7452 0 24 0C37.2548 0 48 10.7452 48 24C48 37.2548 37.2548 48 24 48C10.7452 48 0 37.2548 0 24Z" fill="white"/>
</mask>
<g mask="url(#mask1_1_1115)">
<path d="M21.0694 17.4482C17.2643 18.4742 14.1266 20.8598 12.2341 24.1669C8.25966 31.1146 10.3714 39.5963 17.2544 44.3327C27.4693 51.3551 45.7077 46.9176 46.4747 46.7283L45.6778 43.5159C45.5035 43.5607 28.1167 47.7792 19.132 41.6084C13.6983 37.8731 12.005 31.2291 15.1078 25.8104C16.5621 23.2754 18.9826 21.4376 21.931 20.6457C24.9541 19.8289 28.0819 20.2273 30.7414 21.7613L32.3949 18.8926C28.9684 16.9153 24.9442 16.4023 21.0694 17.4482Z" fill="#CCE7D9"/>
</g>
<mask id="mask2_1_1115" style="mask-type:luminance" maskUnits="userSpaceOnUse" x="0" y="0" width="48" height="48">
<path fill-rule="evenodd" clip-rule="evenodd" d="M0 24C0 10.7452 10.7452 0 24 0C37.2548 0 48 10.7452 48 24C48 37.2548 37.2548 48 24 48C10.7452 48 0 37.2548 0 24Z" fill="white"/>
</mask>
<g mask="url(#mask2_1_1115)">
<path d="M19.9408 22.7728C16.6388 24.6803 14.791 28.1517 14.791 31.7177C14.791 33.3712 15.2044 35.0397 16.0361 36.5836L16.0262 36.5936C16.0262 36.5985 16.0561 36.6483 16.066 36.6683H16.061C16.061 36.6683 16.081 36.6981 16.0959 36.7231C16.1158 36.7629 16.1656 36.8525 16.1706 36.8575C16.6886 37.749 18.6857 40.7522 23.0635 42.346C32.0831 45.6381 47.3582 42.331 48.0056 42.1866L47.2934 38.9543C47.144 38.9892 32.3073 42.1966 24.1941 39.2382C20.7476 37.9831 19.3083 35.6921 19.0443 35.219C19.0443 35.219 19.0344 35.204 19.0344 35.199C18.4018 34.0984 18.098 32.8981 18.098 31.7127C18.098 29.2922 19.3531 26.9365 21.5943 25.6366C23.213 24.7052 25.1005 24.4562 26.9085 24.9393C28.7114 25.4224 30.2205 26.5829 31.1568 28.2015L34.0753 26.6476L34.0205 26.548C32.6459 24.1623 30.4247 22.459 27.7651 21.7419C25.1055 21.0296 22.3264 21.3982 19.9408 22.7728Z" fill="white"/>
</g>
</svg>
