<svg width="48" height="48" viewBox="0 0 48 48" fill="none" xmlns="http://www.w3.org/2000/svg">
<path d="M24 48C37.2548 48 48 37.2548 48 24C48 10.7452 37.2548 0 24 0C10.7452 0 0 10.7452 0 24C0 37.2548 10.7452 48 24 48Z" fill="#F57D00"/>
<path fill-rule="evenodd" clip-rule="evenodd" d="M25.0608 9.60001L25.1233 9.60002H25.1921C29.5709 9.71937 32.7693 13.2774 32.9092 17.0249H32.9217C32.9278 17.0838 32.9301 17.1459 32.9324 17.2081V17.2082V17.2082C32.9343 17.2607 32.9363 17.3133 32.9405 17.3641C33.0279 18.4206 33.0162 19.5733 32.7404 20.7373C32.8763 20.7423 33.008 20.7478 33.1406 20.7558C34.3173 20.8267 35.6866 20.986 36.8803 22.1125C38.074 23.239 38.2673 24.6541 38.3374 25.6831C38.3823 26.3418 38.3847 26.9944 38.3875 27.7309V27.731V27.7312C38.389 28.1452 38.3906 28.5857 38.4 29.0687V29.1119V29.155C38.3719 31.7408 37.588 34.156 35.8985 35.8707C34.209 37.5854 31.7966 38.3786 29.3321 38.3991H29.3196H29.3071H18.8446C18.838 38.3992 18.8316 38.3992 18.8252 38.3991C18.8192 38.3991 18.8132 38.3991 18.8071 38.3991C16.1707 38.4265 13.6172 37.8262 11.8154 36.0064C10.0437 34.217 9.48062 31.6758 9.62033 29.007H9.61407C9.61414 28.9941 9.61567 28.9817 9.61721 28.9692C9.61867 28.9572 9.62014 28.9453 9.62033 28.933C9.62132 28.9165 9.62081 28.9004 9.6203 28.8843C9.61977 28.8678 9.61925 28.8513 9.62033 28.8344H9.63284L9.82045 17.3764H9.82672C9.88071 15.8909 10.2197 14.2705 11.3026 12.7759C12.6828 10.8709 15.2721 9.6977 18.238 9.70484H18.3068L25.0608 9.60001ZM18.538 26.4002C17.6356 26.388 16.7962 26.8427 16.3412 27.5902C15.8862 28.3377 15.8862 29.2623 16.3412 30.0098C16.7962 30.7573 17.6356 31.212 18.538 31.1998H30.2619C31.1644 31.212 32.0038 30.7573 32.4588 30.0098C32.9137 29.2623 32.9137 28.3377 32.4588 27.5902C32.0038 26.8427 31.1644 26.388 30.2619 26.4002H18.538ZM16.8003 18.3205C16.8216 17.0196 17.9933 15.9808 19.4172 16.0003L25.4633 16.0886C26.8872 16.1097 28.0228 17.1815 27.9996 18.4824C27.9765 19.7834 26.8034 20.8208 25.3795 20.7997L19.3399 20.7114C17.9159 20.6918 16.7789 19.6214 16.8003 18.3205Z" fill="white"/>
</svg>
