<svg width="40" height="40" viewBox="0 0 40 40" fill="none" xmlns="http://www.w3.org/2000/svg">
<path d="M39.9771 20.547C39.9771 20.4583 39.9771 20.3692 39.9771 20.2801C39.9771 20.1226 39.9771 19.9651 39.9771 19.8076C39.9771 19.7194 39.9771 19.6312 39.9771 19.5431C39.9748 18.8326 39.9697 18.1208 39.8797 17.4163C39.628 15.454 39.0917 13.5711 38.2733 11.7667C37.296 9.61287 35.9826 7.69002 34.3367 5.99633C33.4232 5.05672 32.4225 4.21585 31.3383 3.47647C29.9991 2.56304 28.5778 1.80804 27.0568 1.24272C26.9704 1.21057 26.8845 1.17705 26.7895 1.19587C26.7137 1.2193 26.6577 1.27211 26.5994 1.32171C25.7851 2.01792 24.9824 2.72699 24.1723 3.42733C23.0434 4.40276 21.9206 5.38508 20.7932 6.36235C19.972 7.07417 19.1564 7.79151 18.3321 8.4992C18.2485 8.57085 18.1415 8.63973 18.1773 8.78118C18.2434 8.88818 18.3596 8.9139 18.4653 8.95523C21.2051 10.0331 23.9486 11.1031 26.6926 12.1704C26.8804 12.2434 26.9631 12.3463 26.9612 12.5598C26.9521 13.8296 26.9571 15.0999 26.9562 16.3697C26.9562 16.5226 26.9654 16.6756 26.9447 16.8285C26.9185 16.9258 26.8326 16.9718 26.7642 17.0292C24.5502 18.8762 22.3284 20.7146 20.1153 22.5626C19.499 23.0774 18.874 23.5821 18.2627 24.1029C18.1654 24.186 18.0147 24.2576 18.107 24.4349C18.3964 24.6296 18.7348 24.7114 19.0531 24.8363C21.5858 25.8301 24.1245 26.8083 26.6517 27.8163C26.9571 27.938 26.9571 27.9408 26.9571 28.2664C26.9576 29.566 26.9576 30.8657 26.9566 32.1653C26.9566 32.2641 26.97 32.3651 26.9158 32.4569C26.8588 32.5713 26.7491 32.6342 26.6563 32.7109C24.3495 34.6099 22.0496 36.5176 19.7452 38.4193C19.2441 38.8326 18.7371 39.239 18.2462 39.6643C18.169 39.7309 18.0363 39.7842 18.1066 39.9334C18.2333 39.9982 18.3785 39.9486 18.5075 39.9991C18.5686 39.9991 18.6301 39.9991 18.6912 39.9991C18.722 39.9706 18.7523 39.9706 18.7831 39.9991C18.8441 39.9991 18.9057 39.9991 18.9668 39.9991C19.0586 39.9628 19.1504 39.9628 19.2423 39.9991C19.7323 39.9991 20.2219 39.9991 20.7119 39.9991C20.7886 39.9623 20.8648 39.9623 20.9415 39.9991C21.0182 39.9991 21.0944 39.9991 21.1711 39.9991C21.2019 39.9706 21.2322 39.9706 21.263 39.9991C21.2937 39.9991 21.324 39.9991 21.3548 39.9991C21.4095 39.9568 21.4728 39.9812 21.5321 39.9766C21.9808 39.9421 22.4331 39.9527 22.8795 39.8875C24.7307 39.6165 26.5098 39.1013 28.2154 38.3274C30.9998 37.0645 33.3791 35.2657 35.3497 32.9304C36.5612 31.4948 37.5468 29.9137 38.31 28.1961C39.392 25.7617 40.0111 23.2253 39.9771 20.547Z" fill="#FE0000"/>
<path d="M21.8223 30.8418C21.9109 30.766 22.0225 30.6838 21.9481 30.5341C21.8696 30.4423 21.758 30.4092 21.6514 30.3679C21.2445 30.2117 20.8381 30.0538 20.4312 29.8967C18.0836 28.9897 15.7396 28.0735 13.391 27.1697C13.0434 27.0361 13.0438 27.0333 13.0434 26.6549C13.0434 25.3617 13.0429 24.0684 13.0438 22.7752C13.0438 22.6687 13.0347 22.5608 13.0673 22.4556C13.0866 22.3817 13.1509 22.3486 13.2032 22.3059C15.5871 20.3532 17.9587 18.3858 20.3398 16.4294C20.8477 16.012 21.3575 15.5963 21.8608 15.1734C21.9495 15.099 22.0735 15.0269 21.9848 14.8744C21.9058 14.7968 21.8016 14.7651 21.7024 14.7275C21.0158 14.4675 20.3339 14.1966 19.6491 13.9325C17.5518 13.1238 15.4581 12.3063 13.3607 11.4981C13.0443 11.3759 13.0443 11.3732 13.0443 11.031C13.0438 9.71574 13.0438 8.40002 13.0443 7.08475C13.0443 6.98555 13.0379 6.88589 13.0608 6.78716C13.1357 6.65765 13.2634 6.58187 13.375 6.49232C15.8815 4.48819 18.3761 2.46936 20.8826 0.464766C20.9662 0.398176 21.0581 0.339393 21.1247 0.255352C21.1743 0.192895 21.2482 0.120335 21.1302 0.049152C20.9153 -0.00412016 20.6962 0.0353747 20.4794 0.0229751C20.3867 0.0229751 20.2934 0.0229751 20.2002 0.0229751C20.0542 0.0229751 19.9077 0.0229751 19.7616 0.0229751C19.6725 0.0229751 19.5835 0.0229751 19.4944 0.0229751C18.9286 0.0160865 18.3619 0.0307823 17.8002 0.0780842C16.7623 0.16534 15.7428 0.369244 14.7362 0.643412C11.4181 1.54628 8.5272 3.20461 6.04316 5.57246C5.01584 6.55156 4.11205 7.64043 3.3217 8.82114C2.40229 10.1947 1.65373 11.6551 1.0907 13.2092C0.608955 14.5373 0.270953 15.9013 0.0923076 17.3033C0.0371986 17.7337 0.0670493 18.1699 0 18.5993C0 18.6604 0 18.7219 0 18.783C0.0280138 18.8087 0.0215844 18.8427 0.0229621 18.8749C0.0215844 18.907 0.0280138 18.941 0 18.9667C0 19.5637 0 20.1608 0 20.7578C0.0362801 20.8496 0.0362801 20.9415 0 21.0333C0 21.1711 0 21.3089 0 21.4466C0.0652123 21.8604 0.0358209 22.2815 0.0881744 22.6958C0.343972 24.7316 0.923076 26.6737 1.79518 28.5277C2.96578 31.0163 4.5768 33.1794 6.62916 35.0117C8.26957 36.4763 10.1116 37.6253 12.1254 38.5011C12.3123 38.5823 12.4955 38.6893 12.7114 38.6825C12.8468 38.642 12.9538 38.5585 13.0585 38.4675C13.3649 38.203 13.6675 37.9339 13.9734 37.6689C14.9543 36.8184 15.9348 35.967 16.913 35.1137C17.943 34.2149 18.9745 33.3176 20.0064 32.4211C20.6126 31.8953 21.2115 31.3617 21.8223 30.8418Z" fill="#FE0000"/>
<path d="M39.9614 20.2994C39.9614 20.1304 39.9614 19.9618 39.9614 19.7928C39.9747 19.7685 39.9871 19.7676 39.9995 19.7933C39.9995 19.9618 39.9995 20.1299 39.9995 20.2985C39.9876 20.3242 39.9747 20.3233 39.9614 20.2994Z" fill="#FDD4D4"/>
<path d="M20.2076 0.0381171C20.0542 0.0381171 19.9004 0.0381171 19.747 0.0381171C19.7291 0.0293915 19.7231 0.0206659 19.7296 0.0123995C19.7351 0.00413318 19.741 0 19.7475 0C19.9004 0 20.0538 0 20.2067 0C20.2251 0.00826636 20.231 0.0165327 20.2251 0.0252583C20.2196 0.0339839 20.2136 0.0381171 20.2076 0.0381171Z" fill="#FDD2D2"/>
<path d="M19.7474 0C19.7474 0.0128588 19.747 0.0252583 19.7465 0.0381171C19.6546 0.0381171 19.5628 0.0381171 19.4709 0.0381171C19.4714 0.0252583 19.4714 0.0128588 19.4719 0C19.5637 0 19.6556 0 19.7474 0Z" fill="#FDE6E6"/>
<path d="M20.2076 0.0381171C20.2071 0.0252583 20.2067 0.0128588 20.2067 0C20.2985 0 20.3904 0 20.4822 0C20.4827 0.0128588 20.4827 0.0252583 20.4831 0.0381171C20.3913 0.0381171 20.2994 0.0381171 20.2076 0.0381171Z" fill="#FDE6E6"/>
<path d="M40 19.7934L39.9807 19.7925L39.9614 19.7929C39.9614 19.7011 39.9614 19.6092 39.9614 19.5169C39.9743 19.5156 39.9867 19.5156 39.9995 19.5178C40 19.6097 40 19.7015 40 19.7934Z" fill="#FDE5E5"/>
<path d="M39.9614 20.2994C39.9743 20.3003 39.9871 20.2998 40 20.2985C40 20.3903 40 20.4822 40 20.574L39.9807 20.5749L39.9614 20.5745C39.9614 20.4831 39.9614 20.3912 39.9614 20.2994Z" fill="#FDE9E9"/>
<path d="M0 20.7577C0.056946 20.8495 0.0785304 20.9414 0 21.0333C0 20.9414 0 20.8495 0 20.7577Z" fill="#FD3C3C"/>
<path d="M18.9667 40C19.0585 39.9215 19.1504 39.9412 19.2422 40C19.1504 40 19.0585 40 18.9667 40Z" fill="#FD3737"/>
<path d="M20.7118 40C20.7885 39.943 20.8647 39.9251 20.9414 40C20.8647 40 20.7885 40 20.7118 40Z" fill="#FD3737"/>
<path d="M0 18.783C0.0528129 18.7958 0.0431688 18.8353 0.0385763 18.8725C0.0275545 18.9042 0.0146958 18.9047 0 18.8748C0 18.844 0 18.8137 0 18.783Z" fill="#FD9797"/>
<path d="M0 18.8749C0.0128588 18.8735 0.0257176 18.8726 0.0385763 18.873C0.0459242 18.9125 0.0450057 18.9483 0 18.9667C0 18.936 0 18.9056 0 18.8749Z" fill="#FD7777"/>
<path d="M18.6912 40C18.7219 39.9325 18.7522 39.9394 18.783 40C18.7522 40 18.7219 40 18.6912 40Z" fill="#FDA7A7"/>
<path d="M21.1711 40C21.2019 39.9394 21.2322 39.9325 21.263 40C21.2322 40 21.2019 40 21.1711 40Z" fill="#FDA7A7"/>
<path d="M21.9536 30.5952C20.5763 30.0579 19.2 29.5192 17.8218 28.9842C16.2663 28.3803 14.7099 27.7782 13.1513 27.1817C13.0016 27.1243 12.9446 27.0563 12.9455 26.8887C12.9533 25.4517 12.9492 24.0147 12.9524 22.5778C12.9524 22.5098 12.9083 22.4249 12.9947 22.372C13.1871 22.3381 13.3533 22.4262 13.5219 22.4924C14.8316 23.0072 16.146 23.5105 17.4548 24.0276C17.5899 24.0809 17.7267 24.1305 17.8622 24.1833C17.9632 24.2228 18.0587 24.2705 18.106 24.378C20.2521 25.2129 22.3981 26.0474 24.5437 26.8836C25.318 27.1854 26.0891 27.4958 26.8652 27.7939C27.0085 27.849 27.0544 27.9211 27.0535 28.0772C27.0461 29.4995 27.0507 30.9222 27.0429 32.3445C27.0424 32.3987 27.1435 32.5415 26.9616 32.5332C26.7899 32.5984 26.6475 32.4965 26.5028 32.4405C25.1839 31.9307 23.8645 31.4214 22.546 30.9089C22.4179 30.8588 22.287 30.8161 22.1602 30.7624C22.0757 30.7266 21.9889 30.6921 21.9536 30.5952Z" fill="#FEFEFE"/>
<path d="M21.9862 14.9336C19.3483 13.9127 16.71 12.8923 14.0721 11.8714C13.7451 11.7446 13.4204 11.6124 13.0907 11.4925C12.9892 11.4558 12.9479 11.4112 12.9479 11.2982C12.9515 9.80661 12.9502 8.31545 12.9511 6.82383C12.9511 6.78067 12.9387 6.72969 12.9956 6.70673C13.1215 6.68331 13.2367 6.72234 13.3515 6.76689C14.6406 7.2693 15.9284 7.7763 17.217 8.28147C17.459 8.37653 17.7052 8.46103 17.944 8.56299C18.0335 8.6011 18.1359 8.6259 18.1768 8.73245C19.1247 9.10902 20.0712 9.48882 21.0209 9.8608C22.958 10.6195 24.8964 11.3754 26.8363 12.1272C26.9901 12.1869 27.0553 12.2558 27.0544 12.4344C27.0452 13.8484 27.0498 15.2624 27.0475 16.6764C27.0475 16.7549 27.0861 16.8454 27.0057 16.912C26.896 16.9262 26.7958 16.8932 26.6948 16.8541C25.2128 16.2824 23.7327 15.7065 22.2503 15.1366C22.1424 15.0952 22.0367 15.0498 21.9862 14.9336Z" fill="#FEFEFE"/>
<path d="M21.9862 14.9336C23.5509 15.5412 25.1155 16.1483 26.6797 16.7572C26.7918 16.8009 26.9157 16.8215 27.0058 16.912C26.5061 17.3846 25.961 17.8034 25.4338 18.2429C23.0439 20.2351 20.6499 22.2222 18.2581 24.2117C18.2003 24.2594 18.1295 24.2975 18.1061 24.3775C16.429 23.7226 14.7523 23.0682 13.0751 22.4128C13.0471 22.4018 13.0214 22.3853 12.9948 22.371C15.9509 19.9361 18.907 17.5012 21.8627 15.0654C21.9091 15.0277 21.9454 14.9777 21.9862 14.9336Z" fill="#FEB1B1"/>
<path d="M21.9537 30.5952C23.623 31.2414 25.2924 31.8875 26.9617 32.5332C26.6311 32.8832 26.2347 33.1564 25.8696 33.4655C25.1142 34.1052 24.3459 34.7302 23.5821 35.3599C22.7656 36.0336 21.9472 36.7054 21.1307 37.3791C20.373 38.0042 19.6157 38.6301 18.8598 39.2574C18.6021 39.471 18.3491 39.6896 18.0937 39.9059C17.2767 39.8618 16.4749 39.7139 15.6772 39.5422C14.7302 39.3383 13.8035 39.065 12.8997 38.7146C12.8368 38.6903 12.778 38.6572 12.7169 38.6278C13.1987 38.2765 13.6225 37.8568 14.0754 37.4714C14.7431 36.9029 15.403 36.3252 16.0653 35.7497C16.5778 35.3043 17.0871 34.8551 17.5991 34.4097C18.2669 33.8292 18.9369 33.2515 19.6042 32.6705C20.1332 32.2095 20.6623 31.7479 21.1858 31.2804C21.4421 31.0517 21.7277 30.8565 21.9537 30.5952Z" fill="#CF0000"/>
<path d="M18.1772 8.73254C17.34 8.41015 16.5019 8.09098 15.6661 7.764C14.7743 7.41543 13.8856 7.05952 12.9956 6.70682C13.9582 5.93208 14.9208 5.15826 15.8824 4.38306C17.1766 3.3392 18.4689 2.2935 19.7639 1.25056C20.1795 0.915776 20.6011 0.588337 21.0181 0.254468C21.0769 0.207625 21.1228 0.145168 21.1752 0.0895996C22.1874 0.111184 23.1825 0.270541 24.169 0.479956C25.0562 0.668245 25.9334 0.898784 26.7775 1.24C26.5074 1.56469 26.1557 1.80074 25.8466 2.08317C25.3176 2.56537 24.7665 3.0237 24.2241 3.49213C23.5784 4.05011 22.9313 4.60671 22.287 5.16652C21.7635 5.62117 21.2441 6.08087 20.7205 6.53644C20.0652 7.10636 19.4076 7.67445 18.7504 8.24253C18.5598 8.40602 18.3678 8.56905 18.1772 8.73254Z" fill="#CF0000"/>
</svg>
