<svg width="40" height="40" viewBox="0 0 40 40" fill="none" xmlns="http://www.w3.org/2000/svg">
<circle cx="20" cy="20" r="20" fill="#40AA1A"/>
<path d="M31.5499 21.6252L31.3846 21.3651C31.1201 20.9761 30.8568 20.5871 30.4594 20.3277C30.129 20.1003 29.7321 19.9388 29.3697 19.7762C30.3935 19.2897 31.094 18.6091 31.4249 17.7336C31.656 17.0195 31.2335 16.4371 31.2335 15.8532V15.7885C31.2335 15.1389 30.335 14.718 29.5093 14.4908C29.0122 14.3937 28.4643 14.3937 27.969 14.4251L26.8837 14.6525L27.2517 13.8424C27.5813 12.8041 27.4847 11.7995 26.923 10.8582L26.8244 10.6972C26.3283 9.88559 25.6018 9.39951 24.6099 9.14038C23.5862 8.88047 22.7145 8.97759 21.7893 9.46417C20.8627 9.95178 19.9889 10.6978 19.9889 11.6694V11.7341L19.8721 11.9615L19.6978 11.7341L19.3459 11.1514C18.8169 10.3402 18.1461 9.85364 17.3193 9.6262C16.592 9.46443 15.9935 9.52934 15.3653 9.85364C14.6723 10.2746 14.272 10.9249 14.1064 11.8319C13.9408 12.7724 14.1059 13.6809 14.6017 14.5879L14.8315 14.9132L14.0387 14.6525C13.0469 14.4251 12.122 14.5554 11.1972 15.0418C10.238 15.5278 9.64361 16.2094 9.24647 17.1496C8.88307 18.0576 8.9168 18.9321 9.37911 19.7438C9.57768 20.1006 9.87489 20.3924 10.1386 20.5871C10.5358 20.9758 11.0316 21.203 11.6262 21.3002L11.8568 21.3648L11.362 21.7875C10.8987 22.1772 10.6352 22.663 10.4698 23.1491C10.305 23.7326 10.3709 24.3165 10.7011 24.8688C10.8667 25.1277 11.0316 25.3528 11.2961 25.5169C11.5606 25.7425 11.8907 25.9053 12.2869 25.938C13.0142 26.1008 13.7745 26.1008 14.5997 25.8402L14.0042 26.8136L13.8404 27.235C13.5095 28.271 13.6078 29.1793 14.1039 30.1198C14.3354 30.4781 14.5997 30.8018 14.8642 31.0934C15.2606 31.4502 15.7553 31.6774 16.3513 31.8402C17.3408 32.0988 18.3326 32.0651 19.292 31.5795C20.2171 31.0934 20.8108 30.314 21.109 29.3424L21.141 29.1486C21.7694 29.8279 22.3641 30.2826 23.0257 30.4448C23.6861 30.6388 24.3467 30.6076 24.9417 30.2174C25.5034 29.8926 25.8997 29.3418 26.0976 28.6603C26.2626 27.9473 26.2626 27.2345 26.0976 26.4254C26.4272 26.6505 26.7587 26.8131 27.1545 26.9094C28.2113 27.2345 29.1374 27.2013 30.0623 26.7152C30.9545 26.2296 31.5491 25.4497 31.8461 24.4451C32.1119 23.4727 32.046 22.5327 31.5499 21.6252ZM26.7592 16.2097L27.1551 16.0469C27.751 15.7885 28.3115 15.7228 28.9074 15.7885C29.4671 15.8532 29.8655 16.1115 30.0628 16.5015L30.1949 16.9224L30.129 17.2475C29.8982 17.8312 29.4017 18.2851 28.5765 18.6416C28.246 18.8028 27.8831 18.8685 27.4868 18.9321L23.4224 19.42L23.3554 19.1926L23.2895 19.0947L23.4224 18.9319L26.7592 16.2097ZM21.1412 12.1238C21.3063 11.4754 21.7697 10.9891 22.3643 10.6645C22.9593 10.3402 23.6199 10.2748 24.2473 10.502C24.9422 10.6645 25.4367 11.021 25.7352 11.5723C25.9003 11.8968 25.9984 12.2861 25.9984 12.7075L25.9 13.4202C25.7681 13.777 25.6025 14.1018 25.4047 14.3939L22.431 17.9605C22.1341 17.7336 21.8036 17.571 21.4722 17.4093L21.1412 13.7453L21.1093 12.4476L21.1412 12.1238ZM15.4931 12.2206C15.5248 11.6372 15.7553 11.248 16.1527 11.0213C16.3513 10.8588 16.6485 10.8588 16.9122 10.9891C17.5077 11.1516 18.0037 11.5725 18.3988 12.3834C18.5644 12.708 18.7293 13.032 18.7962 13.4207L19.4566 17.2483L18.9618 17.41L16.0201 14.2638L15.8552 13.9398C15.5907 13.3556 15.4262 12.8046 15.4931 12.2206ZM10.6347 19.0949C10.3707 18.6094 10.3707 18.1233 10.5692 17.6367C10.8003 17.0195 11.2296 16.534 11.8562 16.2743C12.4522 15.9498 13.0459 15.8534 13.7073 16.0144L14.5994 16.3712L17.5072 18.4466C17.2429 18.7716 17.0773 19.0947 16.9777 19.42L12.2199 20.0037L11.8902 19.939C11.2955 19.8412 10.8987 19.583 10.6347 19.0949ZM19.9889 28.6618L19.8721 28.9866C19.6406 29.5701 19.202 30.0566 18.6076 30.3145C18.0124 30.6396 17.3623 30.7042 16.7691 30.5435C16.1065 30.3807 15.6012 29.9917 15.3367 29.4724C15.1724 29.1494 15.0359 28.7594 15.0359 28.3697L15.1962 27.6252C15.2631 27.3004 15.4282 26.9754 15.6922 26.7165L18.4663 23.4724C18.7967 23.6355 19.2105 23.7975 19.5747 23.8307C19.6398 24.9324 19.9889 26.1016 19.9889 27.3646V28.6618ZM18.729 22.1777C18.2997 21.788 18.0694 21.2355 18.0694 20.6523C18.0694 20.0684 18.2997 19.5825 18.729 19.1279C19.1261 18.7716 19.6549 18.5445 20.2826 18.5445C20.8775 18.5445 21.4392 18.7719 21.8036 19.1279C22.2644 19.5825 22.464 20.0684 22.464 20.6523C22.464 21.2355 22.2644 21.7875 21.8036 22.1777C21.3733 22.5989 20.8775 22.8243 20.2826 22.8243C19.6549 22.8248 19.1264 22.5994 18.729 22.1777ZM24.8433 27.8512C24.7771 28.4364 24.5788 28.8576 24.1811 29.0201C23.9511 29.1806 23.6863 29.1806 23.4218 29.1499C22.7942 28.9869 22.2984 28.5013 21.9355 27.7216L21.5379 26.6518L21.0431 23.831L21.6035 23.6352L22.0342 23.41L23.4221 24.8023L24.2813 25.8407L24.4461 26.1642C24.7433 26.7165 24.9092 27.2358 24.8433 27.8512ZM30.5259 24.0566C30.3605 24.7068 29.9642 25.1926 29.4017 25.4509C28.808 25.776 28.2121 25.8409 27.5525 25.614C27.1551 25.5176 26.8911 25.3531 26.6603 25.0952L23.1903 22.2741L23.4218 21.788L23.5218 21.398L27.2547 21.0732L28.576 21.0418L28.9074 21.0732C29.4017 21.236 29.8655 21.5279 30.1285 22.0137C30.4589 22.372 30.6245 22.858 30.6245 23.4106L30.5259 24.0566Z" fill="white"/>
</svg>
