<svg width="48" height="48" viewBox="0 0 48 48" fill="none" xmlns="http://www.w3.org/2000/svg">
<path d="M24 48C37.2548 48 48 37.2548 48 24C48 10.7452 37.2548 0 24 0C10.7452 0 0 10.7452 0 24C0 37.2548 10.7452 48 24 48Z" fill="#FF5700"/>
<path fill-rule="evenodd" clip-rule="evenodd" d="M41.6 23.6875C41.6 21.4924 39.8065 19.7065 37.6013 19.7065C36.5928 19.7065 35.6726 20.0836 34.9686 20.6993C32.4632 19.097 29.1511 18.0543 25.4832 17.8718L27.4119 11.8024L32.6743 13.0361C32.7334 14.8042 34.1926 16.2259 35.9834 16.2259C37.8109 16.2259 39.2979 14.7459 39.2979 12.926C39.2979 11.1062 37.8105 9.62607 35.9834 9.62607C34.6558 9.62607 33.5117 10.4087 32.9824 11.5327L27.0691 10.1476C26.6774 10.0561 26.2794 10.2807 26.1594 10.6629L23.8761 17.8481C19.971 17.9244 16.4281 18.9744 13.7731 20.6467C13.0769 20.0614 12.1782 19.7065 11.1986 19.7065C8.99344 19.7068 7.19995 21.4924 7.19995 23.6875C7.19995 25.0851 7.92861 26.3137 9.0255 27.0236C8.9696 27.3801 8.9395 27.7413 8.9395 28.1067C8.9395 33.7675 15.843 38.3731 24.3296 38.3731C32.8154 38.3731 39.7197 33.7675 39.7197 28.1067C39.7197 27.7677 39.6939 27.4326 39.6458 27.1011C40.8127 26.4067 41.6 25.1388 41.6 23.6875ZM35.9834 11.1603C36.9618 11.1603 37.7577 11.953 37.7577 12.9272C37.7577 13.9013 36.9618 14.6937 35.9834 14.6937C35.0045 14.6937 34.2086 13.9013 34.2086 12.9272C34.2086 11.953 35.0045 11.1603 35.9834 11.1603ZM11.1982 21.2399C9.84289 21.2399 8.74013 22.3382 8.74013 23.6875C8.74013 24.3686 9.0212 24.9846 9.47426 25.4287C10.0532 24.0015 11.0797 22.6958 12.4514 21.5862C12.0836 21.3679 11.6559 21.2399 11.1982 21.2399ZM38.1795 28.1075C38.1795 32.9222 31.9656 36.8401 24.3296 36.8401C16.6924 36.8401 10.4797 32.9225 10.4797 28.1075C10.4797 27.9378 10.4891 27.7705 10.5039 27.6035C10.5504 27.0917 10.6693 26.5912 10.8503 26.1063C11.3197 24.8492 12.2204 23.6956 13.4506 22.7122C13.8442 22.3973 14.2707 22.1 14.7273 21.8225C17.2193 20.3081 20.6038 19.3741 24.3296 19.3741C28.1093 19.3741 31.5395 20.3346 34.0398 21.8879C34.4975 22.1716 34.9228 22.4759 35.3145 22.7978C36.4958 23.7665 37.3594 24.8959 37.8148 26.1238C37.9942 26.6103 38.113 27.1112 38.1576 27.6241C38.1713 27.7849 38.1795 27.9452 38.1795 28.1075ZM36.2664 21.6357C37.6373 22.7593 38.6615 24.0782 39.224 25.5202C39.7349 25.0718 40.0594 24.4172 40.0602 23.6875C40.0602 22.3378 38.9574 21.2399 37.6017 21.2399C37.1092 21.2399 36.651 21.3862 36.2664 21.6357Z" fill="white"/>
<path d="M21.6171 26.2616C21.6171 24.9687 20.564 23.884 19.265 23.884C17.9664 23.884 16.8773 24.9687 16.8773 26.2616C16.8773 27.5541 17.9668 28.6037 19.265 28.6037C20.564 28.6022 21.6171 27.5541 21.6171 26.2616Z" fill="white"/>
<path d="M29.5705 23.8832C28.2719 23.8832 27.1793 24.9675 27.1793 26.2604C27.1793 27.5537 28.2719 28.6025 29.5705 28.6025C30.8695 28.6025 31.9234 27.5545 31.9234 26.2604C31.9226 24.9667 30.8695 23.8832 29.5705 23.8832Z" fill="white"/>
<path d="M28.906 31.9379C28.0347 32.8042 26.5676 33.2249 24.418 33.2249C24.4113 33.2249 24.4055 33.2269 24.3992 33.2269C24.3926 33.2269 24.3871 33.2249 24.3808 33.2249C22.2308 33.2249 20.7634 32.8042 19.8932 31.9379C19.5926 31.6382 19.1047 31.6382 18.8041 31.9379C18.5031 32.238 18.5031 32.7233 18.8041 33.0218C19.9772 34.1901 21.8016 34.7587 24.3808 34.7587C24.3875 34.7587 24.3929 34.7564 24.3992 34.7564C24.4055 34.7564 24.4113 34.7587 24.418 34.7587C26.9968 34.7587 28.8216 34.1901 29.9958 33.0226C30.2972 32.7225 30.2972 32.2376 29.9966 31.9387C29.6952 31.639 29.2074 31.639 28.906 31.9379Z" fill="white"/>
</svg>
