<svg width="40" height="40" viewBox="0 0 40 40" fill="none" xmlns="http://www.w3.org/2000/svg">
<circle cx="20" cy="20" r="20" fill="#333333"/>
<path d="M14.5 23.1C13.8 23.1 13.2 23.3 12.8 23.8C12.3 24.3 12.1 24.9 12.1 25.5C12.1 26.2 12.3 26.8 12.8 27.2C13.3 27.7 13.9 27.9 14.5 27.9C15.2 27.9 15.8 27.7 16.2 27.2C16.7 26.7 16.9 26.1 16.9 25.5C16.9 24.8 16.7 24.2 16.2 23.8C15.8 23.3 15.2 23.1 14.5 23.1Z" fill="white"/>
<path d="M20.2 19.9C19.2 18.9 18.1 18.2 16.9 17.6C15.7 17 14.4 16.7 13 16.6H12.9C12.7 16.6 12.5 16.7 12.3 16.8C12.1 17 12 17.2 12 17.4V19.1C12 19.3 12.1 19.5 12.2 19.6C12.3 19.8 12.5 19.8 12.7 19.9C14.7 20.1 16.3 20.9 17.7 22.3C19.1 23.7 19.9 25.4 20.1 27.3C20.1 27.5 20.2 27.7 20.4 27.8C20.6 27.9 20.7 28 21 28H22.7C22.9 28 23.1 27.9 23.3 27.7C23.5 27.5 23.5 27.3 23.5 27.1C23.4 25.7 23 24.4 22.5 23.2C21.9 21.9 21.1 20.8 20.2 19.9Z" fill="white"/>
<path d="M28.5 20.7C27.6 18.7 26.3 16.8 24.7 15.3C23.1 13.7 21.3 12.5 19.3 11.5C17.3 10.6 15.1 10.1 12.9 10C12.7 10 12.5 10.1 12.3 10.2C12.1 10.4 12 10.6 12 10.8V12.6C12 12.8 12.1 13 12.2 13.2C12.3 13.4 12.5 13.4 12.7 13.4C14.5 13.5 16.3 13.9 17.9 14.7C19.5 15.5 21 16.4 22.2 17.7C23.4 18.9 24.4 20.3 25.2 22C26 23.6 26.4 25.4 26.5 27.2C26.5 27.4 26.6 27.6 26.7 27.7C26.9 27.8 27 27.9 27.3 27.9H29.1C29.3 27.9 29.5 27.8 29.7 27.6C29.9 27.4 29.9 27.2 29.9 27C29.9 24.9 29.4 22.8 28.5 20.7Z" fill="white"/>
</svg>
