<svg width="48" height="48" viewBox="0 0 48 48" fill="none" xmlns="http://www.w3.org/2000/svg">
<path d="M0 24C0 10.7452 10.7452 0 24 0C37.2548 0 48 10.7452 48 24C48 37.2548 37.2548 48 24 48C10.7452 48 0 37.2548 0 24Z" fill="#323E4D"/>
<path fill-rule="evenodd" clip-rule="evenodd" d="M27.1074 16.1036H29.4575V12.6945H26.993V15.9885C26.993 16.052 27.0442 16.1036 27.1074 16.1036ZM27.1591 29.6745C27.1078 29.6745 27.0615 29.6416 27.0484 29.5917C27.0044 29.423 26.978 29.2168 26.9739 28.9621V22.7766C26.9739 22.7131 27.0251 22.6615 27.0883 22.6615H31.5439C31.6071 22.6615 31.6582 22.61 31.6582 22.5465V19.0924H34.1227V24.5236H29.4384V29.6745H27.1591ZM29.9928 39.0918H29.9925C27.5061 39.0917 25.7798 38.2926 24.6119 37.1638C25.1296 37.1983 25.6689 37.2154 26.2293 37.2154C28.964 37.2154 31.6738 36.2354 32.5701 35.0481L32.7497 34.8101L32.2106 33.2016C32.7225 33.088 33.231 32.8976 33.6505 32.6631L35.1486 37.1326C34.2886 38.2719 32.1486 39.0566 30.19 39.0902C30.1236 39.0913 30.0583 39.0918 29.9928 39.0918Z" fill="#2A323B"/>
<path fill-rule="evenodd" clip-rule="evenodd" d="M32.5701 35.0481C31.6738 36.2354 28.964 37.2154 26.2293 37.2154C19.4329 37.2154 15.7569 34.6955 15.7569 29.3535V22.6615H12.9726C12.9095 22.6615 12.8583 22.61 12.8583 22.5464V17.1131C12.8583 17.0636 12.8897 17.0197 12.9364 17.004L13.2406 16.9018C15.9668 15.9847 17.4174 14.0747 17.8059 10.8909C17.8998 10.121 18.5418 9.70566 19.0982 9.70566H26.8787C26.9419 9.70566 26.993 9.75718 26.993 9.82075V15.9885C26.993 16.052 27.0442 16.1035 27.1074 16.1035H31.5439C31.6071 16.1035 31.6582 16.1551 31.6582 16.2186V22.5464C31.6582 22.61 31.6071 22.6615 31.5439 22.6615H27.0882C27.0251 22.6615 26.9739 22.7131 26.9739 22.7766V28.962C26.978 29.2168 27.0044 29.423 27.0484 29.5917C27.0615 29.6416 27.1078 29.6745 27.1591 29.6745H30.9462C30.9952 29.6745 31.0388 29.706 31.0545 29.7528L32.7497 34.8101L32.5701 35.0481ZM27.1567 36.1015C28.8355 36.073 30.587 35.4594 31.4404 34.6335C31.4726 34.6023 31.4827 34.5551 31.4684 34.5124L30.335 31.1307C30.3143 31.0689 30.2475 31.0379 30.1869 31.0612C29.5393 31.3102 28.8299 31.4552 28.2106 31.4552C26.6736 31.4552 25.881 30.6196 25.8547 28.9711L25.8546 21.65C25.8546 21.5864 25.9058 21.5349 25.9689 21.5349H30.4246C30.4877 21.5349 30.5389 21.4834 30.5389 21.4198V17.3453C30.5389 17.2817 30.4877 17.2302 30.4246 17.2302H25.988C25.9249 17.2302 25.8737 17.1787 25.8737 17.1151V10.9474C25.8737 10.8838 25.8225 10.8323 25.7594 10.8323H22.1953C22.1937 10.8323 22.0372 10.8375 22.0139 11.0284C21.5947 14.4649 20.001 16.6866 17.1473 17.8047C17.1038 17.8218 17.0747 17.8636 17.0747 17.9105V21.4198C17.0747 21.4834 17.1259 21.5349 17.189 21.5349H19.859C19.9221 21.5349 19.9733 21.5864 19.9733 21.65V29.3535C19.9733 31.8604 21.4465 36.1029 26.9682 36.1032H26.9687C27.0311 36.1032 27.0933 36.1026 27.1567 36.1015Z" fill="#FFFFFE"/>
<path d="M18.8539 24.462H15.7568V22.6615H18.753C18.8087 22.6615 18.8539 22.707 18.8539 22.7631V24.462Z" fill="#83838D"/>
</svg>
