<svg width="48" height="48" viewBox="0 0 48 48" fill="none" xmlns="http://www.w3.org/2000/svg">
<path d="M0 24C0 10.7452 10.7452 0 24 0C37.2548 0 48 10.7452 48 24C48 37.2548 37.2548 48 24 48C10.7452 48 0 37.2548 0 24Z" fill="#31AFD8"/>
<path d="M37.586 19.362C37.4579 22.1653 35.5001 26.0032 31.7123 30.8756C27.7968 35.9632 24.4836 38.5081 21.7746 38.5081C20.0951 38.5081 18.6747 36.9595 17.514 33.8599C16.7391 31.0187 15.965 28.1779 15.1899 25.3366C14.3277 22.2387 13.4038 20.6881 12.4147 20.6881C12.1992 20.6881 11.4453 21.1414 10.1544 22.0441L8.80005 20.2992C10.2215 19.0508 11.6233 17.8021 13.0026 16.5517C14.8983 14.9144 16.3223 14.0525 17.2709 13.9659C19.5113 13.7503 20.8909 15.282 21.4086 18.5609C21.9682 22.0992 22.3558 24.2995 22.573 25.1606C23.2199 28.0962 23.931 29.5624 24.7071 29.5624C25.3093 29.5624 26.2153 28.6106 27.4228 26.7056C28.628 24.8019 29.2743 23.3533 29.3613 22.3576C29.5337 20.7147 28.8874 19.891 27.4228 19.891C26.7333 19.891 26.0223 20.0498 25.291 20.3633C26.7068 15.728 29.4108 13.4767 33.4021 13.6052C36.3612 13.6919 37.7571 15.6108 37.586 19.362Z" fill="#FFFFFE"/>
</svg>
