<svg width="48" height="48" viewBox="0 0 48 48" fill="none" xmlns="http://www.w3.org/2000/svg">
<path d="M0 24C0 10.7452 10.7452 0 24 0C37.2548 0 48 10.7452 48 24C48 37.2548 37.2548 48 24 48C10.7452 48 0 37.2548 0 24Z" fill="#00B488"/>
<path d="M23.3905 39.0153C22.2323 38.8311 21.2571 37.9714 19.9161 36.6204C15.8933 32.813 11.7485 22.6189 11.2 14.0216H16.0761C17.3561 23.0488 19.3676 29.1898 23.6952 34.164C25.8285 32.1375 27.5961 29.3126 28.8152 27.0404C26.4381 25.9351 25.0971 23.8471 24.3657 21.9434C22.1105 16.048 24.0609 9.78418 30.461 9.59998C35.1543 9.59998 36.7391 13.1617 36.8 16.5393C36.739 18.5658 36.4342 19.9782 35.8247 21.6978C34.4837 22.0048 33.0819 21.6364 32.2286 21.0223C31.5581 20.531 31.3143 20.7766 31.7409 19.4256C32.2286 17.7061 32.4114 13.9601 30.0952 13.8987C28.5104 14.0215 28.0838 15.9866 28.0838 17.3376C28.5105 22.8645 32.0457 25.3209 36.7391 24.0928V27.6545C35.2153 28.023 35.1543 28.023 33.2647 28.0844C32.1676 30.6636 26.1942 39.5681 23.3295 39.0153H23.3905Z" fill="white"/>
</svg>
