<svg width="48" height="48" viewBox="0 0 48 48" fill="none" xmlns="http://www.w3.org/2000/svg">
<path d="M0 24C0 10.7452 10.7452 0 24 0C37.2548 0 48 10.7452 48 24C48 37.2548 37.2548 48 24 48C10.7452 48 0 37.2548 0 24Z" fill="#BF2519"/>
<path d="M13.5821 23.4438C13.0949 24.2246 12.8892 26.6835 13.0584 28.3156C13.1179 28.8542 13.2154 29.3035 13.3574 29.5714C13.5523 29.9422 13.8798 30.1628 14.2533 30.1763C14.4929 30.1885 14.6417 30.1479 19.1454 28.6999C19.1454 28.6999 21.1469 28.0612 21.1551 28.0571C21.6544 27.9299 21.99 27.4711 22.0225 26.8852C22.055 26.2843 21.7451 25.7538 21.2335 25.5616C21.2335 25.5616 19.8221 24.9865 19.8194 24.9865C14.98 22.9904 14.7622 22.9119 14.5186 22.9092C14.1451 22.8943 13.8135 23.0824 13.5821 23.4438Z" fill="white"/>
<path d="M24.4083 38.3164C24.4868 38.089 24.4963 37.9334 24.5098 33.2023C24.5098 33.2023 24.5207 31.1115 24.522 31.0912C24.5545 30.5783 24.2229 30.1114 23.6803 29.903C23.1214 29.6879 22.5192 29.8205 22.1808 30.2413C22.1808 30.2413 21.1929 31.4133 21.1902 31.4133C17.8003 35.396 17.6582 35.58 17.5756 35.8155C17.5255 35.9535 17.5052 36.1024 17.5215 36.2499C17.5418 36.461 17.6379 36.6694 17.7962 36.8643C18.5825 37.7981 22.3527 39.1852 23.5571 38.9795C23.9753 38.9037 24.2798 38.6682 24.4083 38.3164Z" fill="white"/>
<path d="M32.0571 36.6694C33.1939 36.2161 35.6731 33.0616 35.8477 31.8477C35.9086 31.4255 35.7759 31.0614 35.485 30.8287C35.2942 30.6852 35.1494 30.6297 30.6484 29.152C30.6484 29.152 28.6739 28.4997 28.6482 28.4875C28.1705 28.3021 27.6251 28.474 27.2584 28.926C26.8768 29.3901 26.8199 30.0032 27.1244 30.466L27.9188 31.7597C30.5902 36.0984 30.7945 36.4055 30.9867 36.5558C31.2844 36.7899 31.6633 36.8278 32.0571 36.6694Z" fill="white"/>
<path d="M29.7308 25.4994C34.8462 24.2598 35.0438 24.1948 35.2454 24.0622C35.5553 23.8538 35.711 23.5047 35.6839 23.0797C35.6839 23.0662 35.6866 23.0513 35.6839 23.0364C35.5526 21.7806 33.3522 18.5137 32.2682 17.9833C31.8839 17.7992 31.4995 17.8114 31.1802 18.0252C30.9826 18.1538 30.8378 18.3486 28.0987 22.0945C28.0987 22.0945 26.8618 23.7794 26.847 23.7956C26.5208 24.1921 26.5154 24.7605 26.8348 25.2477C27.165 25.7525 27.7225 25.9988 28.2341 25.8567C28.2341 25.8567 28.2138 25.8932 28.2084 25.9C28.4601 25.8052 28.9107 25.6943 29.7308 25.4994Z" fill="white"/>
<path d="M24.5964 21.2758C24.5085 19.2486 23.8981 10.2222 23.8264 9.80407C23.7236 9.42515 23.4272 9.15449 23.0023 9.04759C21.6963 8.72415 16.7054 10.1221 15.7811 11.0762C15.4834 11.3861 15.3738 11.7677 15.4631 12.106C15.6093 12.4051 21.7924 22.1338 21.7924 22.1338C22.7059 23.6157 23.4515 23.3856 23.6965 23.3085C23.9387 23.234 24.6803 23.004 24.5964 21.2758Z" fill="white"/>
</svg>
